<mxfile host="app.diagrams.net" agent="Mozilla/5.0 (Windows NT 10.0; Win64; x64) AppleWebKit/537.36 (KHTML, like Gecko) Chrome/136.0.0.0 Safari/537.36 Edg/136.0.0.0" version="26.2.14">
  <diagram name="Atomikos Spring Architecture" id="-GEyjpEQG79bUJHVE0J3">
    <mxGraphModel dx="1418" dy="804" grid="1" gridSize="10" guides="1" tooltips="1" connect="1" arrows="1" fold="1" page="1" pageScale="1" pageWidth="850" pageHeight="1100" math="0" shadow="0">
      <root>
        <mxCell id="0" />
        <mxCell id="1" parent="0" />
        <mxCell id="EmIKRjpAbAzk9MXDX8uY-1" value="Atomikos Spring Framework" style="swimlane;fontStyle=1;align=center;verticalAlign=top;childLayout=stackLayout;horizontal=1;startSize=30;horizontalStack=0;resizeParent=1;resizeParentMax=0;resizeLast=0;collapsible=1;marginBottom=0;fillColor=#dae8fc;strokeColor=#6c8ebf;" parent="1" vertex="1">
          <mxGeometry x="40" y="40" width="720" height="600" as="geometry" />
        </mxCell>
        <mxCell id="EmIKRjpAbAzk9MXDX8uY-2" value="Core Module" style="swimlane;fontStyle=1;align=center;verticalAlign=top;childLayout=stackLayout;horizontal=1;startSize=30;horizontalStack=0;resizeParent=1;resizeParentMax=0;resizeLast=0;collapsible=1;marginBottom=0;fillColor=#d5e8d4;strokeColor=#82b366;" parent="EmIKRjpAbAzk9MXDX8uY-1" vertex="1">
          <mxGeometry y="30" width="720" height="570" as="geometry" />
        </mxCell>
        <mxCell id="EmIKRjpAbAzk9MXDX8uY-3" value="Transaction Management" style="rounded=1;whiteSpace=wrap;html=1;fillColor=#fff2cc;strokeColor=#d6b656;" parent="EmIKRjpAbAzk9MXDX8uY-2" vertex="1">
          <mxGeometry y="30" width="720" height="60" as="geometry" />
        </mxCell>
        <mxCell id="EmIKRjpAbAzk9MXDX8uY-4" value="Datasource Management" style="rounded=1;whiteSpace=wrap;html=1;fillColor=#fff2cc;strokeColor=#d6b656;" parent="EmIKRjpAbAzk9MXDX8uY-2" vertex="1">
          <mxGeometry y="90" width="720" height="60" as="geometry" />
        </mxCell>
        <mxCell id="EmIKRjpAbAzk9MXDX8uY-5" value="JMS Integration" style="rounded=1;whiteSpace=wrap;html=1;fillColor=#fff2cc;strokeColor=#d6b656;" parent="EmIKRjpAbAzk9MXDX8uY-2" vertex="1">
          <mxGeometry y="150" width="720" height="60" as="geometry" />
        </mxCell>
        <mxCell id="EmIKRjpAbAzk9MXDX8uY-6" value="Metrics" style="rounded=1;whiteSpace=wrap;html=1;fillColor=#fff2cc;strokeColor=#d6b656;" parent="EmIKRjpAbAzk9MXDX8uY-2" vertex="1">
          <mxGeometry y="210" width="720" height="60" as="geometry" />
        </mxCell>
        <mxCell id="EmIKRjpAbAzk9MXDX8uY-7" value="Config" style="rounded=1;whiteSpace=wrap;html=1;fillColor=#fff2cc;strokeColor=#d6b656;" parent="EmIKRjpAbAzk9MXDX8uY-2" vertex="1">
          <mxGeometry y="270" width="720" height="60" as="geometry" />
        </mxCell>
        <mxCell id="EmIKRjpAbAzk9MXDX8uY-8" value="Factory" style="rounded=1;whiteSpace=wrap;html=1;fillColor=#fff2cc;strokeColor=#d6b656;" parent="EmIKRjpAbAzk9MXDX8uY-2" vertex="1">
          <mxGeometry y="330" width="720" height="60" as="geometry" />
        </mxCell>
        <mxCell id="EmIKRjpAbAzk9MXDX8uY-9" value="连接管理 (Connection)" style="rounded=1;whiteSpace=wrap;html=1;fillColor=#fff2cc;strokeColor=#d6b656;" parent="EmIKRjpAbAzk9MXDX8uY-2" vertex="1">
          <mxGeometry y="390" width="720" height="60" as="geometry" />
        </mxCell>
        <mxCell id="EmIKRjpAbAzk9MXDX8uY-10" value="同步机制 (Synchronization)" style="rounded=1;whiteSpace=wrap;html=1;fillColor=#fff2cc;strokeColor=#d6b656;" parent="EmIKRjpAbAzk9MXDX8uY-2" vertex="1">
          <mxGeometry y="450" width="720" height="60" as="geometry" />
        </mxCell>
        <mxCell id="EmIKRjpAbAzk9MXDX8uY-11" value="JNDI资源管理 (JNDI)" style="rounded=1;whiteSpace=wrap;html=1;fillColor=#fff2cc;strokeColor=#d6b656;" parent="EmIKRjpAbAzk9MXDX8uY-2" vertex="1">
          <mxGeometry y="510" width="720" height="60" as="geometry" />
        </mxCell>
        <mxCell id="EmIKRjpAbAzk9MXDX8uY-12" value="Dependeny" style="swimlane;fontStyle=1;align=center;verticalAlign=top;childLayout=stackLayout;horizontal=1;startSize=30;horizontalStack=0;resizeParent=1;resizeParentMax=0;resizeLast=0;collapsible=1;marginBottom=0;fillColor=#f8cecc;strokeColor=#b85450;" parent="1" vertex="1">
          <mxGeometry x="40" y="460" width="720" height="190" as="geometry" />
        </mxCell>
        <mxCell id="EmIKRjpAbAzk9MXDX8uY-13" value="Spring Boot 2.7.18" style="rounded=1;whiteSpace=wrap;html=1;fillColor=#e1d5e7;strokeColor=#9673a6;" parent="EmIKRjpAbAzk9MXDX8uY-12" vertex="1">
          <mxGeometry y="30" width="720" height="40" as="geometry" />
        </mxCell>
        <mxCell id="EmIKRjpAbAzk9MXDX8uY-14" value="Spring Framework 5.3.31" style="rounded=1;whiteSpace=wrap;html=1;fillColor=#e1d5e7;strokeColor=#9673a6;" parent="EmIKRjpAbAzk9MXDX8uY-12" vertex="1">
          <mxGeometry y="70" width="720" height="40" as="geometry" />
        </mxCell>
        <mxCell id="EmIKRjpAbAzk9MXDX8uY-15" value="Atomikos" style="rounded=1;whiteSpace=wrap;html=1;fillColor=#e1d5e7;strokeColor=#9673a6;" parent="EmIKRjpAbAzk9MXDX8uY-12" vertex="1">
          <mxGeometry y="110" width="720" height="40" as="geometry" />
        </mxCell>
        <mxCell id="EmIKRjpAbAzk9MXDX8uY-16" value="ActiveMQ" style="rounded=1;whiteSpace=wrap;html=1;fillColor=#e1d5e7;strokeColor=#9673a6;" parent="EmIKRjpAbAzk9MXDX8uY-12" vertex="1">
          <mxGeometry y="150" width="720" height="40" as="geometry" />
        </mxCell>
      </root>
    </mxGraphModel>
  </diagram>
</mxfile>
